<?xml version="1.0" encoding="utf-8"?>
<!-- Generator: Adobe Illustrator 15.1.0, SVG Export Plug-In . SVG Version: 6.00 Build 0)  -->
<!DOCTYPE svg PUBLIC "-//W3C//DTD SVG 1.1//EN" "http://www.w3.org/Graphics/SVG/1.1/DTD/svg11.dtd">
<svg version="1.1" id="Layer_1" xmlns="http://www.w3.org/2000/svg" xmlns:xlink="http://www.w3.org/1999/xlink" x="0px" y="0px"
	 width="327px" height="73px" viewBox="0 0 327 73" enable-background="new 0 0 327 73" xml:space="preserve">
<g>
	<g>
		<path fill="#ADC259" d="M237.413,26.563c0,4.889-4,8.888-8.89,8.888H101.237c-4.889,0-8.888-3.999-8.888-8.888V9.888
			c0-4.889,3.999-8.888,8.888-8.888h127.287c4.89,0,8.89,3.999,8.89,8.888V26.563z"/>
	</g>
	<rect x="3.517" y="30.051" fill="#ADC259" width="320" height="40"/>
	<g>
		<path fill="#E6E6E6" d="M39.358,44.341c0,0-3.062,1.782-3.518,3.31c-0.453,1.522-1.448,3.822-1.448,3.822l-0.09,1.618
			l-1.628,1.489c0,0-0.144,1.968-0.521,2.76c-0.654,1.379-1.174,2.609-1.041,2.799l1.219-0.072l0.613,0.509l0.779-0.589l1.262-0.305
			c0,0,0.47,0.053,0.646,0.107c0.18,0.057,0.88,0.104,1.057,0.102c0.099,0,0.723-0.632,0.91-0.81
			c0.061-0.058,0.138-0.009,0.138-0.009l0.093-0.461c0,0,1.75-1.86,1.646-2.082c-0.1-0.217,0.48-1.764,0.415-1.938
			s-0.105-0.955-0.105-0.955l0.251-0.411l-0.193-0.521l0.477-0.948l1.03-1.066l0.479-0.213l1.06-0.942l11.214-9.14
			c0,0,0.348-1.297-0.856-2.908c-1.201-1.612-2.125-2.323-2.624-1.949C49.937,36.05,39.358,44.341,39.358,44.341z"/>
		<path fill="#A67C52" d="M42.921,49.617l11.216-9.145c0,0-0.953,0.526-2.605-1.558c-2.04-2.582-0.457-3.772-0.954-3.398
			c-0.685,0.514-11.267,8.801-11.267,8.801S39.16,47.23,42.921,49.617z"/>
		<path fill="#E6E6E6" d="M54.196,40.467c0,0,0.347-1.297-0.856-2.906c-1.201-1.61-2.124-2.501-2.621-2.127
			c0,0-1.01,1.01,0.76,3.454c0.07,0.1,0.693,0.824,0.693,0.824C53.131,40.654,53.914,40.646,54.196,40.467z"/>
		<polygon fill="#736357" points="42.278,50.018 39.813,50.288 36.932,48.741 38.377,51.445 39.842,52.705 39.859,54.841 
			36.452,54.449 35.289,52.914 34.75,56.089 36.774,57.609 35.168,58.216 31.316,59.73 31.229,60.382 32.28,60.454 33.125,61.003 
			36.703,60.286 37.829,58.623 39.677,56.504 40.487,53.479 41.021,51.37 		"/>
	</g>
	<polygon opacity="0.5" fill="#FCD792" enable-background="new    " points="108.408,4 110.736,11.166 118.271,11.166 
		112.175,15.596 114.503,22.762 108.408,18.332 102.312,22.762 104.64,15.596 98.544,11.166 106.079,11.166 	"/>
	<polygon opacity="0.5" fill="#FCD792" enable-background="new    " points="223.846,4 226.173,11.166 233.708,11.166 
		227.613,15.596 229.941,22.762 223.846,18.332 217.75,22.762 220.078,15.596 213.982,11.166 221.518,11.166 	"/>
</g>
<text transform="matrix(1 0 0 1 118.3203 22.2764)" fill="#FFFFFF" font-family="'FuturaStd-Heavy'" font-size="12">RESUMEN DIARIO</text>
<g>
	<text transform="matrix(1 0 0 1 64.396 55.873)" fill="#534741" font-family="'FuturaStd-Medium'" font-size="15">Cigarrillos fumados:</text>
</g>
</svg>
